<svg xmlns="http://www.w3.org/2000/svg" width="57" height="56"><defs><linearGradient id="a" x1="0%" y1="100%" y2="0%"><stop offset="0%" stop-color="#2CD886"/><stop offset="100%" stop-color="#2CD886"/></linearGradient></defs><path fill="url(#a)" d="M143.494 16.92a4.571 4.571 0 0 1 4.574 4.57v30.92a4.571 4.571 0 0 1-4.574 4.57 4.571 4.571 0 0 1-4.574-4.57V21.49a4.571 4.571 0 0 1 4.574-4.57zm30.278 4a4.571 4.571 0 0 1 4.574 4.57v26.92a4.571 4.571 0 0 1-4.574 4.57 4.571 4.571 0 0 1-4.574-4.57V25.49a4.571 4.571 0 0 1 4.574-4.57zm-14.865 13.057a4.571 4.571 0 0 1 4.574 4.568v13.866a4.571 4.571 0 0 1-4.574 4.569 4.571 4.571 0 0 1-4.574-4.57V38.546a4.571 4.571 0 0 1 4.574-4.568zm30.644-32.164a4.571 4.571 0 0 1 4.574 4.568v46.03a4.571 4.571 0 0 1-4.574 4.569 4.571 4.571 0 0 1-4.574-4.57V6.382a4.571 4.571 0 0 1 4.574-4.569z" transform="translate(-138 -1)"/></svg>